name analog
datacolumns 19
datarows 23
range 0.0 0.011
endheader
time	ground_force_vx	ground_force_vy	ground_force_vz	ground_force_px	ground_force_py	ground_force_pz	l_ground_force_vx	l_ground_force_vy	l_ground_force_vz	l_ground_force_px	l_ground_force_py	l_ground_force_pz	ground_torque_x	ground_torque_y	ground_torque_z	l_ground_torque_x	l_ground_torque_y	l_ground_torque_z
0.0	-0.0	-0.0	-0.0	-0.4692376255989074	60.81362915039063	-414.8946533203125	2.086619138717652	-59.81681823730469	-398.0479431152344	-0.0	-0.0	-0.0	-0.0	-0.0	-0.0	105521.1953125	-39368.4609375	3664.63134765625
0.0005	-0.0	-0.0	-0.0	-0.4031392931938171	61.05770492553711	-414.5550231933594	2.152158260345459	-59.57481384277344	-399.1567077636719	-0.0	-0.0	-0.0	-0.0	-0.0	-0.0	105523.046875	-39323.98828125	3657.015380859375
0.001	-0.0	-0.0	-0.0	-0.627711832523346	61.258914947509766	-414.8162536621094	2.040348052978516	-59.67897415161133	-398.27728271484375	-0.0	-0.0	-0.0	-0.0	-0.0	-0.0	105843.828125	-39502.5234375	3561.401611328125
0.0015	-0.0	-0.0	-0.0	-0.6706305742263794	60.92218399047852	-414.6086730957031	1.8893636465072632	-59.55514144897461	-397.6199035644531	-0.0	-0.0	-0.0	-0.0	-0.0	-0.0	105374.3828125	-39351.64453125	3656.856689453125
0.002	-0.0	-0.0	-0.0	-0.5813629031181335	60.99121475219727	-412.6848754882813	2.2374768257141118	-59.77416229248047	-397.412109375	-0.0	-0.0	-0.0	-0.0	-0.0	-0.0	105454.8203125	-39519.890625	3633.984130859375
0.0025	-0.0	-0.0	-0.0	-0.6705005168914795	61.07732009887695	-414.0292663574219	2.129058837890625	-59.77091979980469	-396.5582580566406	-0.0	-0.0	-0.0	-0.0	-0.0	-0.0	105172.765625	-39411.89453125	3767.970703125
0.003	-0.0	-0.0	-0.0	-0.5352630615234375	61.12049865722656	-413.2418823242188	1.83699369430542	-59.68263244628906	-396.118408203125	-0.0	-0.0	-0.0	-0.0	-0.0	-0.0	105216.4453125	-39281.71484375	3434.8427734375
0.0035	-0.0	-0.0	-0.0	-0.7366353273391724	61.589111328125	-413.9268798828125	2.0803511142730717	-59.68265914916992	-395.4313659667969	-0.0	-0.0	-0.0	-0.0	-0.0	-0.0	105166.9375	-39266.54296875	3560.351806640625
0.004	-0.0	-0.0	-0.0	-0.7799797654151917	61.56621551513672	-413.7551574707031	1.7742156982421875	-59.397705078125	-395.4196166992188	-0.0	-0.0	-0.0	-0.0	-0.0	-0.0	105183.0859375	-39184.0546875	3598.462890625
0.0045000000000000005	-0.0	-0.0	-0.0	-0.9378619194030762	61.50228118896485	-413.85455322265625	2.1062281131744385	-59.68273162841797	-396.4565124511719	-0.0	-0.0	-0.0	-0.0	-0.0	-0.0	105184.5	-39122.23046875	3619.746826171875
0.005	-0.0	-0.0	-0.0	-1.024814486503601	61.19134140014648	-413.8363952636719	2.103745937347412	-59.44049835205078	-395.3293762207031	-0.0	-0.0	-0.0	-0.0	-0.0	-0.0	105019.3671875	-39164.21484375	3627.44921875
0.0055	-0.0	-0.0	-0.0	-1.3360905647277832	61.257450103759766	-414.5347290039063	1.972042441368103	-59.43814086914063	-395.1500244140625	-0.0	-0.0	-0.0	-0.0	-0.0	-0.0	105000.421875	-39086.6953125	3561.217041015625
0.006	-0.0	-0.0	-0.0	-1.0724475383758545	61.298954010009766	-414.4604797363281	1.8629264831542969	-59.68282699584961	-395.2309265136719	-0.0	-0.0	-0.0	-0.0	-0.0	-0.0	105015.828125	-39209.01171875	3538.99072265625
0.006500000000000001	-0.0	-0.0	-0.0	-1.0268296003341677	61.27624130249024	-415.3324279785156	1.4669212102890017	-59.42000579833984	-394.1111755371094	-0.0	-0.0	-0.0	-0.0	-0.0	-0.0	104951.4140625	-39232.55859375	3641.509521484375
0.007	-0.0	-0.0	-0.0	-0.871056318283081	61.27798843383789	-415.8660583496094	1.4873936176300049	-59.46306991577149	-394.8090515136719	-0.0	-0.0	-0.0	-0.0	-0.0	-0.0	104969.71875	-39374.5859375	3560.802734375
0.0075	-0.0	-0.0	-0.0	-0.7605783939361572	61.69937896728516	-414.8068542480469	1.3514602184295654	-59.52881622314453	-395.6851196289063	-0.0	-0.0	-0.0	-0.0	-0.0	-0.0	104747.8125	-39453.6953125	3448.9638671875
0.008	-0.0	-0.0	-0.0	-1.1611586809158323	61.36699295043945	-414.5435485839844	1.7289924621582031	-59.66216659545898	-396.5472412109375	-0.0	-0.0	-0.0	-0.0	-0.0	-0.0	105116.765625	-39316.3046875	3567.86328125
0.0085	-0.0	-0.0	-0.0	-1.2263253927230835	61.76609420776367	-414.0958862304688	1.4645233154296875	-59.65892791748047	-395.5061950683594	-0.0	-0.0	-0.0	-0.0	-0.0	-0.0	105182.9453125	-39433.84765625	3449.563720703125
0.009000000000000001	-0.0	-0.0	-0.0	-0.9384061694145204	61.589111328125	-413.8419494628906	1.4404659271240234	-59.41805648803711	-395.1622924804688	-0.0	-0.0	-0.0	-0.0	-0.0	-0.0	104755.203125	-39507.26171875	3493.82568359375
0.0095	-0.0	-0.0	-0.0	-1.3156061172485352	61.03378677368164	-412.8673706054688	1.464383602142334	-59.50771713256836	-395.0676574707031	-0.0	-0.0	-0.0	-0.0	-0.0	-0.0	104973.84375	-39302.859375	3478.757568359375
0.01	-0.0	-0.0	-0.0	-1.6490728855133057	61.41172790527344	-413.39886474609375	1.64055073261261	-59.41930770874024	-395.509765625	-0.0	-0.0	-0.0	-0.0	-0.0	-0.0	105133.875	-39525.71484375	3567.90673828125
0.0105	-0.0	-0.0	-0.0	-1.4491193294525146	61.16519165039063	-414.0188293457031	1.3520499467849731	-59.35112762451172	-395.6771240234375	-0.0	-0.0	-0.0	-0.0	-0.0	-0.0	104818.453125	-39468.765625	3456.93115234375
0.011	-0.0	-0.0	-0.0	-1.0935657024383545	60.98762512207031	-412.2498779296875	1.5958863496780396	-59.63854217529297	-396.1142883300781	-0.0	-0.0	-0.0	-0.0	-0.0	-0.0	105179.8828125	-39586.25	3449.79443359375
